<?xml version="1.0" encoding="UTF-8"?><svg xmlns="http://www.w3.org/2000/svg" width="59.47" height="38.96" viewBox="0 0 59.47 38.96"><defs><style>.d{fill:#82afff;}.e{fill:#f09146;}.f{fill:#f5f5f5;}.g{fill:#ffe15a;}</style></defs><g id="a"/><g id="b"><g id="c"><g><path class="d" d="M55.01,0H4.45C1.99,0,0,1.99,0,4.45V12.99H59.47V4.45c0-2.46-1.99-4.45-4.45-4.45Z"/><path class="d" d="M0,34.51c0,2.46,1.99,4.45,4.45,4.45H55.01c2.46,0,4.45-1.99,4.45-4.45v-8.53H0v8.53Z"/><path class="f" d="M59.47,12.99H0v12.99H59.47V12.99Z"/><path class="e" d="M34.86,19.22h-3.69c.07-.05,.12-.1,.17-.15,.09-.09,.16-.16,.35-.24,.19-.08,.29-.08,.42-.08,.15,0,.33,0,.61-.12,.28-.12,.41-.24,.51-.34,.09-.09,.16-.16,.35-.24,.19-.08,.29-.08,.42-.08,.15,0,.32,0,.61-.12l-.2-.47c-.19,.08-.29,.08-.42,.08-.15,0-.32,0-.61,.12-.28,.12-.41,.24-.51,.34-.09,.09-.16,.16-.35,.24-.19,.08-.29,.08-.42,.08-.15,0-.33,0-.61,.12-.28,.12-.41,.24-.51,.34-.09,.09-.16,.16-.34,.23l2.9-2.9-.36-.36-2.61,2.61c.01-.09,.01-.16,.02-.23,0-.13,0-.23,.08-.42,.08-.19,.15-.26,.24-.35,.11-.11,.23-.23,.34-.52,.12-.28,.12-.45,.12-.61,0-.13,0-.23,.08-.42,.08-.19,.15-.26,.24-.35,.11-.11,.23-.23,.34-.51l-.47-.2c-.08,.19-.15,.26-.24,.35-.11,.11-.23,.23-.34,.51-.12,.28-.12,.45-.12,.61,0,.13,0,.23-.08,.42-.08,.19-.15,.26-.24,.35-.11,.11-.23,.23-.34,.52-.12,.28-.12,.46-.12,.61,0,.12,0,.22-.08,.41v-4.1h-.51v3.69c-.05-.07-.1-.12-.15-.17-.09-.09-.16-.16-.24-.35-.08-.19-.08-.29-.08-.42,0-.15,0-.33-.12-.61-.12-.28-.24-.4-.34-.51-.09-.09-.16-.16-.24-.35-.08-.19-.08-.29-.08-.42,0-.15,0-.32-.12-.61l-.47,.2c.08,.19,.08,.29,.08,.42,0,.15,0,.32,.12,.61,.12,.28,.24,.4,.34,.51,.09,.09,.16,.16,.24,.35,.08,.19,.08,.29,.08,.42,0,.15,0,.33,.12,.61,.12,.28,.24,.41,.34,.51,.09,.09,.16,.16,.23,.34l-2.9-2.9-.36,.36,2.9,2.9c-.16-.07-.24-.14-.32-.22-.11-.11-.23-.23-.52-.35-.28-.12-.46-.12-.61-.12-.13,0-.23,0-.42-.08-.19-.08-.26-.15-.36-.24-.11-.11-.23-.23-.52-.35-.28-.12-.46-.12-.61-.12-.13,0-.23,0-.42-.08l-.2,.47c.28,.12,.46,.12,.61,.12,.13,0,.23,0,.42,.08,.19,.08,.27,.15,.36,.24,.11,.11,.23,.23,.52,.34,.28,.12,.46,.12,.61,.12,.13,0,.23,0,.42,.08,.19,.08,.26,.15,.35,.24,.05,.05,.1,.09,.16,.14h-3.7v.51h4.09c-.16,.06-.26,.07-.38,.07-.15,0-.33,0-.61,.12-.28,.12-.41,.24-.52,.34-.09,.09-.16,.16-.35,.24-.19,.08-.29,.08-.42,.08-.15,0-.33,0-.61,.12-.28,.12-.41,.24-.52,.35-.09,.09-.16,.16-.36,.24l.2,.47c.28-.12,.41-.24,.52-.35,.09-.09,.16-.16,.36-.24,.19-.08,.29-.08,.42-.08,.15,0,.33,0,.61-.12,.28-.12,.41-.24,.52-.34,.09-.09,.16-.16,.36-.24,.19-.08,.29-.08,.42-.08,.06,0,.14,0,.22-.01l-2.62,2.62,.36,.36,2.9-2.9c-.07,.16-.14,.23-.22,.32-.11,.11-.23,.23-.34,.52-.12,.28-.12,.46-.12,.61,0,.13,0,.23-.08,.42-.08,.19-.15,.27-.24,.36-.11,.11-.23,.23-.35,.52-.12,.28-.12,.46-.12,.61,0,.13,0,.23-.08,.42l.47,.2c.12-.28,.12-.46,.12-.61,0-.13,0-.23,.08-.42,.08-.19,.15-.27,.24-.36,.11-.11,.23-.23,.35-.52,.12-.28,.12-.46,.12-.61,0-.13,0-.23,.08-.42,.08-.19,.15-.26,.24-.35,.05-.05,.09-.1,.14-.16v3.7h.51v-4.09c.06,.16,.07,.26,.07,.38,0,.15,0,.33,.12,.61,.12,.28,.24,.41,.34,.52,.09,.09,.16,.16,.24,.36,.08,.19,.08,.29,.08,.42,0,.15,0,.33,.12,.61,.12,.28,.24,.41,.35,.52,.09,.09,.16,.16,.24,.36l.47-.2c-.12-.28-.24-.41-.35-.52-.09-.09-.16-.16-.24-.36-.08-.19-.08-.29-.08-.42,0-.15,0-.33-.12-.61-.12-.28-.24-.41-.34-.52-.09-.09-.16-.16-.24-.36-.08-.19-.08-.29-.08-.42,0-.06,0-.14-.01-.22l2.62,2.62,.36-.36-2.61-2.61c.08,.01,.16,.01,.23,.02,.13,0,.23,0,.42,.08,.19,.08,.26,.15,.35,.24,.11,.11,.23,.23,.52,.34,.28,.12,.45,.12,.61,.12,.13,0,.23,0,.42,.08,.19,.08,.26,.15,.35,.24,.11,.11,.23,.23,.51,.34l.2-.47c-.19-.08-.26-.15-.35-.24-.11-.11-.23-.23-.51-.34-.28-.12-.45-.12-.61-.12-.13,0-.23,0-.42-.08-.19-.08-.26-.15-.35-.24-.11-.11-.23-.23-.52-.34-.28-.12-.46-.12-.61-.12-.12,0-.22,0-.41-.08h4.11v-.51h0Z"/><path class="g" d="M29.73,22.04c1.42,0,2.56-1.15,2.56-2.56s-1.15-2.56-2.56-2.56-2.56,1.15-2.56,2.56,1.15,2.56,2.56,2.56Z"/></g></g></g></svg>