<?xml version="1.0" encoding="UTF-8"?><svg xmlns="http://www.w3.org/2000/svg" width="59.53" height="38.97" viewBox="0 0 59.53 38.97"><defs><style>.d{fill:#f5f5f5;}.e{fill:#ffe15a;}.f{fill:#73af00;}.g{fill:#41479b;}</style></defs><g id="a"/><g id="b"><g id="c"><g><path class="f" d="M55.08,0H4.44C1.98,0,0,1.98,0,4.44v30.08c0,2.46,1.98,4.44,4.44,4.44H55.08c2.46,0,4.44-1.98,4.44-4.44V4.44c0-2.46-1.98-4.44-4.44-4.44Z"/><path class="e" d="M29.21,5.48L7.62,18.65c-.63,.4-.63,1.35,0,1.75l21.67,13.17c.32,.24,.71,.24,1.03,0l21.67-13.17c.63-.4,.63-1.35,0-1.75L30.32,5.48c-.32-.24-.79-.24-1.11,0Z"/><circle class="g" cx="29.76" cy="19.52" r="8.17"/><g><path class="d" d="M22.7,15.32c-.4,.63-.71,1.35-.87,2.06,4.52-.32,11.27,.95,15.56,5.08,.32-.71,.48-1.51,.56-2.3-4.44-3.65-10.56-5-15.24-4.84Z"/><path class="d" d="M30.08,22.3l.24,.63h.71c.08,0,.16,.08,.08,.16l-.56,.4,.24,.63c0,.08-.08,.16-.16,.08l-.56-.4-.56,.4c-.08,.08-.16,0-.16-.08l.24-.63-.56-.4c-.08-.08,0-.16,.08-.16h.71l.24-.63c-.16-.08,0-.08,0,0Z"/><path class="d" d="M32.78,23.97l.08,.32h.32s.08,.08,0,.08l-.24,.16,.08,.32s0,.08-.08,.08l-.24-.16-.16,.08s-.08,0-.08-.08l.08-.32-.24-.16v-.08h.32l.16-.24c-.08,0,0,0,0,0Z"/><path class="d" d="M28.97,21.03l.08,.32h.32s.08,.08,0,.08l-.24,.16,.08,.32s0,.08-.08,.08l-.24-.16-.24,.16s-.08,0-.08-.08l.08-.32-.24-.16v-.08h.32l.24-.32c-.08,0,0,0,0,0Z"/><path class="d" d="M23.73,20.71l.08,.32h.32s.08,.08,0,.08l-.24,.16,.08,.32s0,.08-.08,.08l-.16-.24-.24,.16s-.08,0-.08-.08l.08-.32-.24-.16v-.08h.32l.16-.24c-.08,0,0,0,0,0Z"/><path class="d" d="M28.1,23.89l.08,.32h.32s.08,.08,0,.08l-.24,.16,.08,.32s0,.08-.08,.08l-.24-.24-.24,.16s-.08,0-.08-.08l.08-.32-.24-.16v-.08h.32l.24-.24c-.08,0,0,0,0,0Z"/><path class="d" d="M25.71,20.56l.08,.24h.24s.08,.08,0,.08l-.16,.16,.08,.24s0,.08-.08,0l-.16-.16-.16,.16h-.08l.08-.24-.16-.16v-.08h.24l.08-.24c-.08-.08,0-.08,0,0Z"/><path class="d" d="M33.02,15.79l.08,.32h.32s.08,.08,0,.08l-.24,.16,.08,.32s0,.08-.08,.08l-.24-.16-.24,.08s-.08,0-.08-.08l.08-.32-.24-.16v-.08h.32l.24-.24c-.08-.08,0-.08,0,0Z"/><path class="d" d="M24.05,19.13l.08,.24h.24s.08,.08,0,.08l-.16,.16,.08,.24s0,.08-.08,0l-.16-.16-.24,.16h-.08l.08-.24-.16-.16v-.08h.24l.16-.24q0-.08,0,0Z"/><path class="d" d="M25.24,22.38l.08,.32h.4c.08,0,.08,.08,0,.08l-.24,.24,.08,.32q0,.08-.08,.08l-.32-.24-.32,.24s-.08,0-.08-.08l.08-.32-.24-.24v-.08h.4l.08-.32c.08-.08,.16-.08,.16,0Z"/><path class="d" d="M34.29,24.05l.08,.24h.24s.08,0,0,.08l-.16,.16,.08,.24s0,.08-.08,0l-.16-.16-.16,.16h-.08l.08-.24-.16-.16v-.08h.24l.08-.24c-.08,0,0,0,0,0Z"/><path class="d" d="M35.08,22.38l.08,.32h.32s.08,.08,0,.08l-.24,.16,.08,.32s0,.08-.08,.08l-.24-.16-.24,.16s-.08,0-.08-.08l.08-.32-.24-.16v-.08h.32l.24-.32c-.08,0,0,0,0,0Z"/></g></g></g></g></svg>