<?xml version="1.0" encoding="UTF-8"?><svg xmlns="http://www.w3.org/2000/svg" width="168.1" height="132" viewBox="0 0 168.1 132"><defs><style>.d{fill:#000;}</style></defs><g id="a"/><g id="b"><g id="c"><g><path d="M163.3,118H4.8c-2.64,0-4.8-2.15-4.8-4.8v-6.94c0-2.64,2.15-4.8,4.8-4.8H163.3c2.64,0,4.8,2.15,4.8,4.8v6.94c0,2.64-2.15,4.8-4.8,4.8ZM4.8,105.58c-.38,0-.69,.31-.69,.69v6.94c0,.38,.31,.69,.69,.69H163.3c.38,0,.69-.31,.69-.69v-6.94c0-.38-.31-.69-.69-.69H4.8Z"/><path class="d" d="M88.48,18.5h-8.86c-1.51,0-2.74-1.23-2.74-2.74V2.06h14.35V15.76c0,1.51-1.23,2.74-2.74,2.74Z"/><path d="M116.3,54.67H51.8c-2.64,0-4.8-2.15-4.8-4.8V4.8c0-2.64,2.15-4.8,4.8-4.8H116.3c2.64,0,4.8,2.15,4.8,4.8V49.88c0,2.64-2.15,4.8-4.8,4.8ZM51.8,4.11c-.38,0-.69,.31-.69,.69V49.88c0,.38,.31,.69,.69,.69H116.3c.38,0,.69-.31,.69-.69V4.8c0-.38-.31-.69-.69-.69H51.8Z"/><path class="d" d="M123.47,69.41h-8.86c-1.51,0-2.74-1.23-2.74-2.74v-13.7h14.35v13.7c0,1.51-1.23,2.74-2.74,2.74Z"/><path class="d" d="M54.19,69.41h-8.86c-1.51,0-2.74-1.23-2.74-2.74v-13.7h14.35v13.7c0,1.51-1.23,2.74-2.74,2.74Z"/><path d="M82.01,105.58H17.51c-2.64,0-4.8-2.15-4.8-4.8V55.71c0-2.64,2.15-4.8,4.8-4.8H82.01c2.64,0,4.8,2.15,4.8,4.8v45.08c0,2.64-2.15,4.8-4.8,4.8ZM17.51,55.02c-.38,0-.69,.31-.69,.69v45.08c0,.38,.31,.69,.69,.69H82.01c.38,0,.69-.31,.69-.69V55.71c0-.38-.31-.69-.69-.69H17.51Z"/><path d="M151.99,105.58H87.49c-2.64,0-4.8-2.15-4.8-4.8V55.71c0-2.64,2.15-4.8,4.8-4.8h64.5c2.64,0,4.8,2.15,4.8,4.8v45.08c0,2.64-2.15,4.8-4.8,4.8ZM87.49,55.02c-.38,0-.69,.31-.69,.69v45.08c0,.38,.31,.69,.69,.69h64.5c.38,0,.69-.31,.69-.69V55.71c0-.38-.31-.69-.69-.69H87.49Z"/><path d="M39.14,132H17.51c-2.64,0-4.8-2.15-4.8-4.8v-13.31h31.23v13.31c0,2.64-2.15,4.8-4.8,4.8Zm-22.32-14v9.2c0,.38,.31,.69,.69,.69h21.64c.38,0,.69-.31,.69-.69v-9.2H16.82Z"/><path d="M95.57,132h-21.64c-2.64,0-4.8-2.15-4.8-4.8v-13.31h31.23v13.31c0,2.64-2.15,4.8-4.8,4.8Zm-22.32-14v9.2c0,.38,.31,.69,.69,.69h21.64c.38,0,.69-.31,.69-.69v-9.2h-23.01Z"/><path d="M151.99,132h-21.64c-2.64,0-4.8-2.15-4.8-4.8v-13.31h31.23v13.31c0,2.64-2.15,4.8-4.8,4.8Zm-22.32-14v9.2c0,.38,.31,.69,.69,.69h21.64c.38,0,.69-.31,.69-.69v-9.2h-23.01Z"/></g></g></g></svg>