<?xml version="1.0" encoding="UTF-8"?><svg xmlns="http://www.w3.org/2000/svg" width="198.62" height="128.5" viewBox="0 0 198.62 128.5"><defs><style>.d{fill:#fff;}.e{fill:#fff;}</style></defs><g id="a"/><g id="b"><g id="c"><g><g><g><path class="d" d="M140.55,36.12h27.96c1.03,0,2,.48,2.62,1.3l24.36,32.04c.43,.57,.67,1.27,.67,1.99v33.27c0,1.82-1.47,3.29-3.29,3.29h-52.32"/><path d="M192.87,110.47h-52.32v-4.93h52.32c.45,0,.82-.37,.82-.82v-33.27c0-.18-.06-.36-.17-.5l-24.36-32.04c-.15-.2-.4-.32-.65-.32h-27.96v-4.93h27.96c1.79,0,3.5,.85,4.58,2.27l24.36,32.04c.76,1,1.17,2.23,1.17,3.48v33.27c0,3.17-2.58,5.75-5.75,5.75Z"/></g><g><path class="d" d="M39.64,2.47h96.91c2.21,0,4,1.79,4,4V108.01H39.64c-2.21,0-4-1.79-4-4V6.47c0-2.21,1.79-4,4-4Z"/><path d="M143.01,110.47H38.92c-3.17,0-5.75-2.58-5.75-5.75V5.75c0-3.17,2.58-5.75,5.75-5.75h98.34c3.17,0,5.75,2.58,5.75,5.75V110.47ZM38.92,4.93c-.45,0-.82,.37-.82,.82V104.72c0,.45,.37,.82,.82,.82h99.16V5.75c0-.45-.37-.82-.82-.82H38.92Z"/></g><g><path class="e" d="M66,25.6h-.92c-1.82,0-3.29-1.47-3.29-3.29v-7.71h7.49v7.71c0,1.82-1.47,3.29-3.29,3.29Z"/><path d="M80.53,50.88h-29.98c-3.17,0-5.75-2.58-5.75-5.75V17.89c0-3.17,2.58-5.75,5.75-5.75h29.98c3.17,0,5.75,2.58,5.75,5.75v27.24c0,3.17-2.58,5.75-5.75,5.75ZM50.55,17.06c-.45,0-.82,.37-.82,.82v27.24c0,.45,.37,.82,.82,.82h29.98c.45,0,.82-.37,.82-.82V17.89c0-.45-.37-.82-.82-.82h-29.98Z"/></g><g><path class="e" d="M111.11,25.6h-.92c-1.82,0-3.29-1.47-3.29-3.29v-7.71h7.49v7.71c0,1.82-1.47,3.29-3.29,3.29Z"/><path d="M125.64,50.88h-29.98c-3.17,0-5.75-2.58-5.75-5.75V17.89c0-3.17,2.58-5.75,5.75-5.75h29.98c3.17,0,5.75,2.58,5.75,5.75v27.24c0,3.17-2.58,5.75-5.75,5.75Zm-29.98-33.82c-.45,0-.82,.37-.82,.82v27.24c0,.45,.37,.82,.82,.82h29.98c.45,0,.82-.37,.82-.82V17.89c0-.45-.37-.82-.82-.82h-29.98Z"/></g><g><path class="e" d="M66,69.55h-.92c-1.82,0-3.29-1.47-3.29-3.29v-7.71h7.49v7.71c0,1.82-1.47,3.29-3.29,3.29Z"/><path d="M80.53,94.83h-29.98c-3.17,0-5.75-2.58-5.75-5.75v-27.24c0-3.17,2.58-5.75,5.75-5.75h29.98c3.17,0,5.75,2.58,5.75,5.75v27.24c0,3.17-2.58,5.75-5.75,5.75Zm-29.98-33.82c-.45,0-.82,.37-.82,.82v27.24c0,.45,.37,.82,.82,.82h29.98c.45,0,.82-.37,.82-.82v-27.24c0-.45-.37-.82-.82-.82h-29.98Z"/></g><g><path class="e" d="M111.11,69.55h-.92c-1.82,0-3.29-1.47-3.29-3.29v-7.71h7.49v7.71c0,1.82-1.47,3.29-3.29,3.29Z"/><path d="M125.64,94.83h-29.98c-3.17,0-5.75-2.58-5.75-5.75v-27.24c0-3.17,2.58-5.75,5.75-5.75h29.98c3.17,0,5.75,2.58,5.75,5.75v27.24c0,3.17-2.58,5.75-5.75,5.75Zm-29.98-33.82c-.45,0-.82,.37-.82,.82v27.24c0,.45,.37,.82,.82,.82h29.98c.45,0,.82-.37,.82-.82v-27.24c0-.45-.37-.82-.82-.82h-29.98Z"/></g><path d="M178.28,72.81h-25.63c-3.17,0-5.75-2.58-5.75-5.75v-17.24c0-3.17,2.58-5.75,5.75-5.75h12.79c1.81,0,3.53,.87,4.61,2.32l12.84,17.24c1.31,1.76,1.51,4.06,.53,6.02-.98,1.96-2.95,3.17-5.14,3.17Zm-25.63-23.82c-.45,0-.82,.37-.82,.82v17.24c0,.45,.37,.82,.82,.82h25.63c.44,0,.65-.28,.73-.45,.09-.17,.19-.51-.07-.86l-12.84-17.24c-.15-.21-.4-.33-.66-.33h-12.79Z"/><rect class="e" x="149.36" y="79.05" width="8.39" height="3.57"/><g><path class="e" d="M18.59,96.79H9.64c-1.36,0-2.47-1.1-2.47-2.47s1.1-2.47,2.47-2.47h8.95c1.36,0,2.47,1.1,2.47,2.47s-1.1,2.47-2.47,2.47Z"/><path class="e" d="M18.59,80.89h-7.22c-1.36,0-2.47-1.1-2.47-2.47s1.1-2.47,2.47-2.47h7.22c1.36,0,2.47,1.1,2.47,2.47s-1.1,2.47-2.47,2.47Z"/><path class="e" d="M18.64,64.98H2.47c-1.36,0-2.47-1.1-2.47-2.47s1.1-2.47,2.47-2.47H18.64c1.36,0,2.47,1.1,2.47,2.47s-1.1,2.47-2.47,2.47Z"/><path class="e" d="M18.59,49.08h-7.22c-1.36,0-2.47-1.1-2.47-2.47s1.1-2.47,2.47-2.47h7.22c1.36,0,2.47,1.1,2.47,2.47s-1.1,2.47-2.47,2.47Z"/><path class="e" d="M18.59,32.68H9.64c-1.36,0-2.47-1.1-2.47-2.47s1.1-2.47,2.47-2.47h8.95c1.36,0,2.47,1.1,2.47,2.47s-1.1,2.47-2.47,2.47Z"/></g><g><circle class="d" cx="68.44" cy="111.72" r="10.84"/><path d="M68.44,125.02c-7.34,0-13.31-5.97-13.31-13.31s5.97-13.31,13.31-13.31,13.31,5.97,13.31,13.31-5.97,13.31-13.31,13.31Zm0-21.68c-4.62,0-8.38,3.76-8.38,8.38s3.76,8.38,8.38,8.38,8.38-3.76,8.38-8.38-3.76-8.38-8.38-8.38Z"/></g><g><circle class="d" cx="165.88" cy="111.72" r="10.84"/><path d="M165.88,125.02c-7.34,0-13.31-5.97-13.31-13.31s5.97-13.31,13.31-13.31,13.31,5.97,13.31,13.31-5.97,13.31-13.31,13.31Zm0-21.68c-4.62,0-8.38,3.76-8.38,8.38s3.76,8.38,8.38,8.38,8.38-3.76,8.38-8.38-3.76-8.38-8.38-8.38Z"/></g></g><path d="M196.15,128.5H2.47c-1.36,0-2.47-1.1-2.47-2.47s1.1-2.47,2.47-2.47H196.15c1.36,0,2.47,1.1,2.47,2.47s-1.1,2.47-2.47,2.47Z"/></g></g></g></svg>