<?xml version="1.0" encoding="UTF-8"?><svg xmlns="http://www.w3.org/2000/svg" width="131.79" height="131.52" viewBox="0 0 131.79 131.52"><defs><style>.d{fill:##000;}</style></defs><g id="a"/><g id="b"><g id="c"><g><path d="M126.41,131.52H4.83c-2.66,0-4.83-2.17-4.83-4.83v-5.11c0-2.66,2.17-4.83,4.83-4.83H126.41c2.66,0,4.83,2.17,4.83,4.83v5.11c0,2.66-2.17,4.83-4.83,4.83ZM4.83,120.89c-.38,0-.69,.31-.69,.69v5.11c0,.38,.31,.69,.69,.69H126.41c.38,0,.69-.31,.69-.69v-5.11c0-.38-.31-.69-.69-.69H4.83Z"/><path d="M21.06,120.89H4.35v-9.53c0-2.66,2.17-4.83,4.83-4.83h7.05c2.66,0,4.83,2.17,4.83,4.83v9.53Zm-12.57-4.14h8.43v-5.39c0-.38-.31-.69-.69-.69h-7.05c-.38,0-.69,.31-.69,.69v5.39Z"/><polygon points="89.48 119.42 70.55 56.99 57.59 56.99 39 119.41 35.03 118.23 54.5 52.84 73.62 52.84 93.45 118.22 89.48 119.42"/><path d="M82.65,120.89c-.89,0-1.72-.58-1.98-1.48l-5.72-19.25-27.9,20.33c-.72,.52-1.69,.53-2.41,.02-.73-.51-1.04-1.43-.79-2.28l9.49-31.92s.01-.04,.02-.06l8.91-29.98c.26-.88,1.07-1.48,1.98-1.48s1.72,.6,1.98,1.48l6.01,20.24s.02,.06,.03,.08l12.37,41.64c.33,1.1-.3,2.25-1.4,2.57-.2,.06-.4,.09-.59,.09Zm-26.04-31.11l-7.06,23.76,22.51-16.41-15.45-7.36Zm2.93-3.19l13.24,6.3-3.72-12.51-9.53,6.2Zm4.69-22.46l-5.33,17.94,8.93-5.82-3.6-12.12Z"/><path d="M12.7,110.67c-1.14,0-2.07-.93-2.07-2.07V56.85c0-1.14,.93-2.07,2.07-2.07s2.07,.93,2.07,2.07v51.75c0,1.14-.93,2.07-2.07,2.07Z"/><path d="M112.79,67.89l-43.37-16.86-1.15-7.71-4.15-1.79-5.88,4.65-28.9-11.63,7.59-17.33L119.62,51.14l-6.84,16.75Zm-39.63-19.84l37.33,14.51,3.74-9.15L39.1,22.59l-4.25,9.72,22.71,9.14,5.93-4.69,8.54,3.68,1.14,7.62Z"/><path class="d" d="M21.99,61.67l-11.09-3.9-.23-1.15c-4.12-20.29,.5-38.4,14.1-55.39l.98-1.23,10.62,4.55,3.82,15.55L21.99,61.67Zm-7.48-7.02l5.23,1.84L35.84,19.72l-2.99-12.18-5.81-2.49c-11.95,15.47-15.95,31.3-12.53,49.59Z"/><rect x="51.35" y="47.29" width="11.25" height="4.14" transform="translate(-1.09 97.45) rotate(-80.54)"/><rect x="69.62" y="49.51" width="4.14" height="5.43" transform="translate(-6.86 11.03) rotate(-8.4)"/><path class="d" d="M115.15,114.7c-5.37,0-9.24-2.5-11.53-7.46l-.4-.88,5.99-12.69,3.74,1.77-5.15,10.9c1.49,2.74,4.25,5.28,11.17,3.76,4.68-1.05,6.66-2.89,8.15-7.93l-9.04-8.15,2.77-3.08,10.92,9.84-.31,1.22c-1.66,6.41-4.09,10.45-11.59,12.13-1.68,.37-3.26,.56-4.72,.56Z"/><path d="M116.97,106.03c-3.1,0-5.42-1.91-6.27-5.3l-12.26-42.86,14.91,5.79,9.73,33.85c.34,1.09,.76,3.3-.35,5.38-.74,1.38-2.01,2.37-3.67,2.87l-.12,.03c-.68,.16-1.34,.24-1.97,.24Zm-12.26-41.28l9.99,34.95c.46,1.88,1.4,2.48,3.23,2.07,.84-.27,1.07-.69,1.14-.83,.29-.54,.3-1.38,.04-2.24l-9.18-31.92-5.22-2.03Z"/><circle cx="23.13" cy="24.75" r="1.97"/><circle cx="27.06" cy="16.59" r="1.97"/></g></g></g></svg>