<?xml version="1.0" encoding="UTF-8"?><svg xmlns="http://www.w3.org/2000/svg" width="204.74" height="125.93" viewBox="0 0 204.74 125.93"><defs><style>.d{fill:none;stroke:#000;stroke-miterlimit:10;stroke-width:3px;}.e{fill:#000;}</style></defs><g id="a"/><g id="b"><g id="c"><g><rect class="d" x="51.94" y="1.5" width="100.87" height="61.46" rx="4" ry="4"/><rect class="d" x="102.37" y="62.96" width="100.87" height="61.46" rx="4" ry="4"/><rect class="d" x="1.5" y="62.96" width="100.87" height="61.46" rx="4" ry="4"/><g><path class="e" d="M103.38,11.68c.73,0,1.13,.38,1.16,.5V52.29c-.03,.12-.42,.5-1.16,.5h-2.02c-.73,0-1.13-.38-1.16-.5V12.18c.03-.12,.42-.5,1.16-.5h2.02m0-2.2h-2.02c-1.85,0-3.36,1.21-3.36,2.7V52.29c0,1.48,1.51,2.7,3.36,2.7h2.02c1.85,0,3.36-1.21,3.36-2.7V12.17c0-1.48-1.51-2.7-3.36-2.7h0Z"/><path class="e" d="M120.84,11.68c.73,0,1.13,.38,1.16,.5V52.29c-.03,.12-.42,.5-1.16,.5h-2.02c-.73,0-1.13-.38-1.16-.5V12.18c.03-.12,.42-.5,1.16-.5h2.02m0-2.2h-2.02c-1.85,0-3.36,1.21-3.36,2.7V52.29c0,1.48,1.51,2.7,3.36,2.7h2.02c1.85,0,3.36-1.21,3.36-2.7V12.17c0-1.48-1.51-2.7-3.36-2.7h0Z"/><path class="e" d="M138.29,11.68c.73,0,1.13,.38,1.16,.5V52.29c-.03,.12-.42,.5-1.16,.5h-2.02c-.73,0-1.13-.38-1.16-.5V12.18c.03-.12,.42-.5,1.16-.5h2.02m0-2.2h-2.02c-1.85,0-3.36,1.21-3.36,2.7V52.29c0,1.48,1.51,2.7,3.36,2.7h2.02c1.85,0,3.36-1.21,3.36-2.7V12.17c0-1.48-1.51-2.7-3.36-2.7h0Z"/><path class="e" d="M85.92,11.68c.73,0,1.13,.38,1.16,.5V52.29c-.03,.12-.42,.5-1.16,.5h-2.02c-.73,0-1.13-.38-1.16-.5V12.18c.03-.12,.42-.5,1.16-.5h2.02m0-2.2h-2.02c-1.85,0-3.36,1.21-3.36,2.7V52.29c0,1.48,1.51,2.7,3.36,2.7h2.02c1.85,0,3.36-1.21,3.36-2.7V12.17c0-1.48-1.51-2.7-3.36-2.7h0Z"/><path class="e" d="M68.47,11.68c.73,0,1.13,.38,1.16,.5V52.29c-.03,.12-.42,.5-1.16,.5h-2.02c-.73,0-1.13-.38-1.16-.5V12.18c.03-.12,.42-.5,1.16-.5h2.02m0-2.2h-2.02c-1.85,0-3.36,1.21-3.36,2.7V52.29c0,1.48,1.51,2.7,3.36,2.7h2.02c1.85,0,3.36-1.21,3.36-2.7V12.17c0-1.48-1.51-2.7-3.36-2.7h0Z"/></g><g><path class="e" d="M153.82,73.14c.73,0,1.13,.38,1.16,.5v40.11c-.03,.12-.42,.5-1.16,.5h-2.02c-.73,0-1.13-.38-1.16-.5v-40.11c.03-.12,.42-.5,1.16-.5h2.02m0-2.2h-2.02c-1.85,0-3.36,1.21-3.36,2.7v40.12c0,1.48,1.51,2.7,3.36,2.7h2.02c1.85,0,3.36-1.21,3.36-2.7v-40.12c0-1.48-1.51-2.7-3.36-2.7h0Z"/><path class="e" d="M171.27,73.14c.73,0,1.13,.38,1.16,.5v40.11c-.03,.12-.42,.5-1.16,.5h-2.02c-.73,0-1.13-.38-1.16-.5v-40.11c.03-.12,.42-.5,1.16-.5h2.02m0-2.2h-2.02c-1.85,0-3.36,1.21-3.36,2.7v40.12c0,1.48,1.51,2.7,3.36,2.7h2.02c1.85,0,3.36-1.21,3.36-2.7v-40.12c0-1.48-1.51-2.7-3.36-2.7h0Z"/><path class="e" d="M188.73,73.14c.73,0,1.13,.38,1.16,.5v40.11c-.03,.12-.42,.5-1.16,.5h-2.02c-.73,0-1.13-.38-1.16-.5v-40.11c.03-.12,.42-.5,1.16-.5h2.02m0-2.2h-2.02c-1.85,0-3.36,1.21-3.36,2.7v40.12c0,1.48,1.51,2.7,3.36,2.7h2.02c1.85,0,3.36-1.21,3.36-2.7v-40.12c0-1.48-1.51-2.7-3.36-2.7h0Z"/><path class="e" d="M136.36,73.14c.73,0,1.13,.38,1.16,.5v40.11c-.03,.12-.42,.5-1.16,.5h-2.02c-.73,0-1.13-.38-1.16-.5v-40.11c.03-.12,.42-.5,1.16-.5h2.02m0-2.2h-2.02c-1.85,0-3.36,1.21-3.36,2.7v40.12c0,1.48,1.51,2.7,3.36,2.7h2.02c1.85,0,3.36-1.21,3.36-2.7v-40.12c0-1.48-1.51-2.7-3.36-2.7h0Z"/><path class="e" d="M118.9,73.14c.73,0,1.13,.38,1.16,.5v40.11c-.03,.12-.42,.5-1.16,.5h-2.02c-.73,0-1.13-.38-1.16-.5v-40.11c.03-.12,.42-.5,1.16-.5h2.02m0-2.2h-2.02c-1.85,0-3.36,1.21-3.36,2.7v40.12c0,1.48,1.51,2.7,3.36,2.7h2.02c1.85,0,3.36-1.21,3.36-2.7v-40.12c0-1.48-1.51-2.7-3.36-2.7h0Z"/></g><g><path class="e" d="M52.94,73.14c.73,0,1.13,.38,1.16,.5v40.11c-.03,.12-.42,.5-1.16,.5h-2.02c-.73,0-1.13-.38-1.16-.5v-40.11c.03-.12,.42-.5,1.16-.5h2.02m0-2.2h-2.02c-1.85,0-3.36,1.21-3.36,2.7v40.12c0,1.48,1.51,2.7,3.36,2.7h2.02c1.85,0,3.36-1.21,3.36-2.7v-40.12c0-1.48-1.51-2.7-3.36-2.7h0Z"/><path class="e" d="M70.4,73.14c.73,0,1.13,.38,1.16,.5v40.11c-.03,.12-.42,.5-1.16,.5h-2.02c-.73,0-1.13-.38-1.16-.5v-40.11c.03-.12,.42-.5,1.16-.5h2.02m0-2.2h-2.02c-1.85,0-3.36,1.21-3.36,2.7v40.12c0,1.48,1.51,2.7,3.36,2.7h2.02c1.85,0,3.36-1.21,3.36-2.7v-40.12c0-1.48-1.51-2.7-3.36-2.7h0Z"/><path class="e" d="M87.86,73.14c.73,0,1.13,.38,1.16,.5v40.11c-.03,.12-.42,.5-1.16,.5h-2.02c-.73,0-1.13-.38-1.16-.5v-40.11c.03-.12,.42-.5,1.16-.5h2.02m0-2.2h-2.02c-1.85,0-3.36,1.21-3.36,2.7v40.12c0,1.48,1.51,2.7,3.36,2.7h2.02c1.85,0,3.36-1.21,3.36-2.7v-40.12c0-1.48-1.51-2.7-3.36-2.7h0Z"/><path class="e" d="M35.49,73.14c.73,0,1.13,.38,1.16,.5v40.11c-.03,.12-.42,.5-1.16,.5h-2.02c-.73,0-1.13-.38-1.16-.5v-40.11c.03-.12,.42-.5,1.16-.5h2.02m0-2.2h-2.02c-1.85,0-3.36,1.21-3.36,2.7v40.12c0,1.48,1.51,2.7,3.36,2.7h2.02c1.85,0,3.36-1.21,3.36-2.7v-40.12c0-1.48-1.51-2.7-3.36-2.7h0Z"/><path class="e" d="M18.03,73.14c.73,0,1.13,.38,1.16,.5v40.11c-.03,.12-.42,.5-1.16,.5h-2.02c-.73,0-1.13-.38-1.16-.5v-40.11c.03-.12,.42-.5,1.16-.5h2.02m0-2.2h-2.02c-1.85,0-3.36,1.21-3.36,2.7v40.12c0,1.48,1.51,2.7,3.36,2.7h2.02c1.85,0,3.36-1.21,3.36-2.7v-40.12c0-1.48-1.51-2.7-3.36-2.7h0Z"/></g></g></g></g></svg>