<?xml version="1.0" encoding="UTF-8"?><svg xmlns="http://www.w3.org/2000/svg" width="118.98" height="127" viewBox="0 0 118.98 127"><defs><style>.d{fill:#000;}</style></defs><g id="a"/><g id="b"><g id="c"><g><path d="M75.7,127c-15.45,0-28.02-12.57-28.02-28.02,0-8.94,4.22-17.28,11.33-22.53V16.7c0-9.21,7.49-16.7,16.69-16.7,4.45,0,8.63,1.74,11.79,4.9,3.16,3.16,4.9,7.35,4.9,11.8v59.76c7.12,5.25,11.34,13.59,11.34,22.53,0,15.45-12.57,28.02-28.03,28.02Zm0-123.02c-7.01,0-12.71,5.71-12.71,12.72v61.84l-.87,.59c-6.55,4.45-10.46,11.88-10.46,19.86,0,13.26,10.79,24.04,24.04,24.04s24.05-10.79,24.05-24.04c0-7.98-3.91-15.4-10.47-19.86l-.87-.59V16.7c0-3.39-1.32-6.58-3.73-8.99-2.41-2.41-5.6-3.73-8.98-3.73Z"/><path d="M75.7,119.05c-11.06,0-20.06-9-20.06-20.06,0-7.79,4.4-14.74,11.33-18.07V16.7c0-4.82,3.92-8.74,8.73-8.74,2.32,0,4.51,.91,6.17,2.57,1.66,1.65,2.57,3.85,2.57,6.17V80.91c6.93,3.34,11.34,10.29,11.34,18.07,0,11.06-9,20.06-20.07,20.06Zm0-107.12c-2.62,0-4.76,2.14-4.76,4.76V83.55l-1.25,.5c-6.13,2.46-10.08,8.32-10.08,14.93,0,8.87,7.22,16.09,16.09,16.09s16.09-7.22,16.09-16.09c0-6.61-3.96-12.47-10.09-14.93l-1.25-.5V16.7c0-1.26-.5-2.46-1.4-3.36-.9-.9-2.1-1.4-3.36-1.4Z"/><rect x="68.82" y="72.24" width="13.62" height="3.98"/><g><path class="d" d="M111.21,19.06h-7.22c-1.1,0-1.99-.89-1.99-1.99s.89-1.99,1.99-1.99h7.22c1.1,0,1.99,.89,1.99,1.99s-.89,1.99-1.99,1.99Z"/><path class="d" d="M109.81,31.88h-5.82c-1.1,0-1.99-.89-1.99-1.99s.89-1.99,1.99-1.99h5.82c1.1,0,1.99,.89,1.99,1.99s-.89,1.99-1.99,1.99Z"/><path class="d" d="M116.99,44.71h-13.04c-1.1,0-1.99-.89-1.99-1.99s.89-1.99,1.99-1.99h13.04c1.1,0,1.99,.89,1.99,1.99s-.89,1.99-1.99,1.99Z"/><path class="d" d="M109.81,57.54h-5.82c-1.1,0-1.99-.89-1.99-1.99s.89-1.99,1.99-1.99h5.82c1.1,0,1.99,.89,1.99,1.99s-.89,1.99-1.99,1.99Z"/><path class="d" d="M111.21,70.76h-7.22c-1.1,0-1.99-.89-1.99-1.99s.89-1.99,1.99-1.99h7.22c1.1,0,1.99,.89,1.99,1.99s-.89,1.99-1.99,1.99Z"/></g><g><g><path class="d" d="M24.52,70.48c-1.1,0-1.99-.89-1.99-1.99V16.72c0-1.1,.89-1.99,1.99-1.99s1.99,.89,1.99,1.99v51.77c0,1.1-.89,1.99-1.99,1.99Z"/><path class="d" d="M24.59,33.04l-8.89-8.89c-.78-.78-.78-2.04,0-2.81,.78-.78,2.04-.78,2.81,0l6.08,6.08,5.8-5.8c.78-.78,2.04-.78,2.81,0,.78,.78,.78,2.04,0,2.81l-8.61,8.61Z"/><path class="d" d="M31.87,66.69c-.51,0-1.02-.19-1.41-.58l-6.08-6.08-5.8,5.8c-.78,.78-2.04,.78-2.81,0-.78-.78-.78-2.04,0-2.81l8.61-8.61,8.89,8.89c.78,.78,.78,2.04,0,2.81-.39,.39-.9,.58-1.41,.58Z"/></g><g><path class="d" d="M2.99,56.94c-.69,0-1.36-.36-1.73-1-.55-.95-.22-2.17,.73-2.72L46.88,27.42c.95-.55,2.17-.22,2.72,.73,.55,.95,.22,2.17-.73,2.72L3.98,56.68c-.31,.18-.65,.27-.99,.27Z"/><path class="d" d="M46.04,40.58c-.17,0-.35-.02-.52-.07l-11.76-3.17,3.27-12.14c.29-1.06,1.38-1.69,2.44-1.4,1.06,.29,1.69,1.38,1.4,2.44l-2.24,8.3,7.92,2.14c1.06,.29,1.69,1.38,1.4,2.44-.24,.89-1.04,1.47-1.92,1.47Z"/><path class="d" d="M9.95,61.42c-.17,0-.35-.02-.52-.07-1.06-.29-1.69-1.38-1.4-2.44l2.24-8.3-7.92-2.14c-1.06-.29-1.69-1.38-1.4-2.44,.29-1.06,1.38-1.69,2.44-1.4l11.76,3.17-3.27,12.14c-.24,.89-1.04,1.47-1.92,1.47Z"/></g><g><path class="d" d="M46.38,58.1c-.35,0-.7-.09-1.02-.28L.97,31.19c-.94-.57-1.25-1.79-.68-2.73,.56-.94,1.79-1.25,2.73-.68l44.4,26.63c.94,.56,1.25,1.79,.68,2.73-.37,.62-1.03,.97-1.71,.97Z"/><path class="d" d="M3.33,40.93c-.89,0-1.7-.6-1.93-1.51-.27-1.07,.38-2.15,1.45-2.41l8.34-2.09-1.99-7.96c-.27-1.07,.38-2.15,1.45-2.41,1.06-.27,2.14,.38,2.41,1.45l2.96,11.82-12.2,3.05c-.16,.04-.32,.06-.48,.06Z"/><path class="d" d="M39.11,62.3c-.89,0-1.7-.6-1.93-1.51l-2.96-11.82,12.2-3.05c1.06-.27,2.14,.38,2.41,1.45s-.38,2.15-1.45,2.41l-8.34,2.09,1.99,7.96c.27,1.07-.38,2.15-1.45,2.41-.16,.04-.32,.06-.48,.06Z"/></g></g></g></g></g></svg>